<svg width="36" height="36" viewBox="0 0 36 36" fill="none" xmlns="http://www.w3.org/2000/svg">
<path d="M7.506 10.5032H7.4625C7.00192 10.5319 6.54035 10.4653 6.10671 10.3075C5.67306 10.1496 5.27667 9.90397 4.94235 9.58585C4.60804 9.26774 4.34301 8.88402 4.16384 8.45874C3.98468 8.03345 3.89525 7.57576 3.90115 7.11432C3.90705 6.65287 4.00816 6.19762 4.19814 5.77705C4.38812 5.35649 4.66288 4.97968 5.00522 4.67021C5.34756 4.36075 5.7501 4.12529 6.18765 3.97859C6.62519 3.83189 7.08831 3.7771 7.548 3.81766C8.00859 3.78548 8.47086 3.84879 8.90584 4.00362C9.34082 4.15845 9.73913 4.40146 10.0758 4.71742C10.4125 5.03338 10.6803 5.41547 10.8624 5.83976C11.0445 6.26404 11.137 6.72137 11.1341 7.18307C11.1312 7.64477 11.0329 8.1009 10.8455 8.52286C10.6581 8.94483 10.3855 9.32353 10.0449 9.63523C9.70429 9.94693 9.30296 10.1849 8.86607 10.3343C8.42918 10.4836 7.96615 10.5411 7.506 10.5032V10.5032Z" fill="white"/>
<path d="M4.52698 15H10.527V33H4.52698V15Z" fill="white"/>
<path d="M26.277 15C25.266 15.0027 24.2687 15.2339 23.3596 15.6763C22.4504 16.1186 21.6531 16.7607 21.027 17.5545V15H15.027V33H21.027V24.75C21.027 23.9544 21.343 23.1913 21.9057 22.6287C22.4683 22.0661 23.2313 21.75 24.027 21.75C24.8226 21.75 25.5857 22.0661 26.1483 22.6287C26.7109 23.1913 27.027 23.9544 27.027 24.75V33H33.027V21.75C33.027 19.9598 32.3158 18.2429 31.0499 16.977C29.7841 15.7112 28.0672 15 26.277 15Z" fill="white"/>
</svg>
