<svg width="37" height="38" viewBox="0 0 37 38" fill="none" xmlns="http://www.w3.org/2000/svg">
<rect opacity="0.4" x="0.0734863" y="0.398438" width="36.8" height="36.8" rx="6.39998" fill="#3CE8B5" fill-opacity="0.08"/>
<path d="M17.036 19.2635L27.2234 28.104L23.0985 18.8097L22.3621 17.1675L22.3683 17.1643L22.3621 17.1504C22.3621 17.1504 27.1323 14.7694 27.0716 12.3073C27.0387 11.7787 27.1711 6.0316 10.705 12.5133C10.414 12.8822 10.1267 13.2836 10.0147 13.4416C10.8032 13.2026 21.1131 10.1381 20.9784 13.3989C20.9775 13.5304 20.9619 13.6613 20.9319 13.7894C20.6613 14.9707 19.4463 15.9407 18.5329 16.2298C18.1663 16.3165 18.0972 16.1503 18.1008 16.0038C18.0994 15.9469 18.1067 15.8901 18.1223 15.8354C18.2386 15.4175 18.6948 14.3094 18.801 14.0533L13.9414 15.1209L12.6639 18.8097L9.70435 27.4442L14.7182 25.7361L17.036 19.2635Z" fill="url(#paint0_linear_2273_3273)"/>
<defs>
<linearGradient id="paint0_linear_2273_3273" x1="9.60129" y1="9.45312" x2="30.9293" y2="16.3852" gradientUnits="userSpaceOnUse">
<stop stop-color="#3CE8B5"/>
<stop offset="1" stop-color="#3CDEE8"/>
</linearGradient>
</defs>
</svg>
