<svg width="30" height="26" viewBox="0 0 30 26" fill="none" xmlns="http://www.w3.org/2000/svg">
<path d="M30 3.69624C28.8766 4.1942 27.6848 4.52084 26.4645 4.66524C27.7503 3.89642 28.7126 2.6862 29.172 1.26024C27.9639 1.97795 26.6418 2.48327 25.263 2.75424C24.4182 1.85488 23.3227 1.23007 22.1185 0.960851C20.9143 0.691629 19.657 0.790408 18.5096 1.24438C17.3622 1.69835 16.3777 2.48657 15.6837 3.50683C14.9897 4.52709 14.6183 5.73232 14.6175 6.96624C14.6167 7.4382 14.6695 7.90872 14.775 8.36874C12.3281 8.2459 9.93445 7.60992 7.74929 6.50209C5.56413 5.39427 3.63632 3.83934 2.091 1.93824C1.30389 3.29327 1.06275 4.89733 1.41666 6.4239C1.77058 7.95047 2.69294 9.28478 3.996 10.1552C3.01789 10.1253 2.06119 9.8614 1.206 9.38574V9.46374C1.20624 10.8849 1.69809 12.2623 2.59812 13.3622C3.49815 14.4621 4.75095 15.2168 6.144 15.4982C5.61553 15.6419 5.07016 15.7141 4.5225 15.7127C4.13348 15.7129 3.74529 15.6768 3.363 15.6047C3.75608 16.8275 4.52139 17.8968 5.55197 18.6633C6.58255 19.4298 7.82688 19.8551 9.111 19.8797C6.53013 21.8997 3.25412 22.815 0 22.4252C2.81408 24.2342 6.08962 25.1945 9.435 25.1912C11.7387 25.2068 14.0224 24.7645 16.1537 23.8901C18.285 23.0156 20.2213 21.7264 21.8502 20.0974C23.4791 18.4684 24.7681 16.5319 25.6424 14.4006C26.5167 12.2692 26.9587 9.98539 26.943 7.68174C26.943 7.41474 26.9365 7.14974 26.9235 6.88674C28.1303 6.01434 29.1721 4.93397 30 3.69624Z" fill="white"/>
</svg>
